<mxfile host="app.diagrams.net" modified="2023-11-06T09:19:01.240Z" agent="Mozilla/5.0 (Windows NT 10.0; WOW64) AppleWebKit/537.36 (KHTML, like Gecko) Chrome/109.0.0.0 Safari/537.36" etag="85n79l8sEOk-7Hf4qIfk" version="22.0.8" type="device">
  <diagram id="C5RBs43oDa-KdzZeNtuy" name="Page-1">
    <mxGraphModel dx="1006" dy="566" grid="1" gridSize="10" guides="1" tooltips="1" connect="1" arrows="1" fold="1" page="1" pageScale="1" pageWidth="827" pageHeight="1169" math="0" shadow="0">
      <root>
        <mxCell id="WIyWlLk6GJQsqaUBKTNV-0" />
        <mxCell id="WIyWlLk6GJQsqaUBKTNV-1" parent="WIyWlLk6GJQsqaUBKTNV-0" />
        <mxCell id="9vGFFWBtkDfa4I6SG_q_-1" value="" style="edgeStyle=orthogonalEdgeStyle;rounded=0;orthogonalLoop=1;jettySize=auto;html=1;" edge="1" parent="WIyWlLk6GJQsqaUBKTNV-1" source="o327pmdWcNCjlhLGnWa4-0" target="9vGFFWBtkDfa4I6SG_q_-0">
          <mxGeometry relative="1" as="geometry" />
        </mxCell>
        <mxCell id="o327pmdWcNCjlhLGnWa4-0" value="Start" style="ellipse;whiteSpace=wrap;html=1;" parent="WIyWlLk6GJQsqaUBKTNV-1" vertex="1">
          <mxGeometry x="354" width="120" height="80" as="geometry" />
        </mxCell>
        <mxCell id="o327pmdWcNCjlhLGnWa4-13" value="End" style="ellipse;whiteSpace=wrap;html=1;" parent="WIyWlLk6GJQsqaUBKTNV-1" vertex="1">
          <mxGeometry x="410" y="610" width="120" height="80" as="geometry" />
        </mxCell>
        <mxCell id="o327pmdWcNCjlhLGnWa4-22" style="edgeStyle=orthogonalEdgeStyle;rounded=0;orthogonalLoop=1;jettySize=auto;html=1;exitX=0;exitY=0.5;exitDx=0;exitDy=0;" parent="WIyWlLk6GJQsqaUBKTNV-1" edge="1">
          <mxGeometry relative="1" as="geometry">
            <mxPoint x="404" y="220" as="targetPoint" />
            <Array as="points">
              <mxPoint x="20" y="430" />
              <mxPoint x="20" y="220" />
            </Array>
          </mxGeometry>
        </mxCell>
        <mxCell id="9vGFFWBtkDfa4I6SG_q_-3" value="" style="edgeStyle=orthogonalEdgeStyle;rounded=0;orthogonalLoop=1;jettySize=auto;html=1;" edge="1" parent="WIyWlLk6GJQsqaUBKTNV-1" source="9vGFFWBtkDfa4I6SG_q_-0" target="9vGFFWBtkDfa4I6SG_q_-2">
          <mxGeometry relative="1" as="geometry" />
        </mxCell>
        <mxCell id="9vGFFWBtkDfa4I6SG_q_-0" value="a,b,c" style="shape=parallelogram;perimeter=parallelogramPerimeter;whiteSpace=wrap;html=1;fixedSize=1;" vertex="1" parent="WIyWlLk6GJQsqaUBKTNV-1">
          <mxGeometry x="354" y="120" width="120" height="60" as="geometry" />
        </mxCell>
        <mxCell id="9vGFFWBtkDfa4I6SG_q_-6" value="False" style="edgeStyle=orthogonalEdgeStyle;rounded=0;orthogonalLoop=1;jettySize=auto;html=1;" edge="1" parent="WIyWlLk6GJQsqaUBKTNV-1" source="9vGFFWBtkDfa4I6SG_q_-2" target="9vGFFWBtkDfa4I6SG_q_-4">
          <mxGeometry relative="1" as="geometry" />
        </mxCell>
        <mxCell id="9vGFFWBtkDfa4I6SG_q_-7" value="True" style="edgeStyle=orthogonalEdgeStyle;rounded=0;orthogonalLoop=1;jettySize=auto;html=1;" edge="1" parent="WIyWlLk6GJQsqaUBKTNV-1" source="9vGFFWBtkDfa4I6SG_q_-2" target="9vGFFWBtkDfa4I6SG_q_-5">
          <mxGeometry relative="1" as="geometry" />
        </mxCell>
        <mxCell id="9vGFFWBtkDfa4I6SG_q_-2" value="a = 0" style="rhombus;whiteSpace=wrap;html=1;" vertex="1" parent="WIyWlLk6GJQsqaUBKTNV-1">
          <mxGeometry x="374" y="210" width="80" height="80" as="geometry" />
        </mxCell>
        <mxCell id="9vGFFWBtkDfa4I6SG_q_-9" value="" style="edgeStyle=orthogonalEdgeStyle;rounded=0;orthogonalLoop=1;jettySize=auto;html=1;" edge="1" parent="WIyWlLk6GJQsqaUBKTNV-1" source="9vGFFWBtkDfa4I6SG_q_-4" target="9vGFFWBtkDfa4I6SG_q_-8">
          <mxGeometry relative="1" as="geometry" />
        </mxCell>
        <mxCell id="9vGFFWBtkDfa4I6SG_q_-4" value="D=b*b-4*a*c" style="rounded=0;whiteSpace=wrap;html=1;" vertex="1" parent="WIyWlLk6GJQsqaUBKTNV-1">
          <mxGeometry x="140" y="220" width="120" height="60" as="geometry" />
        </mxCell>
        <mxCell id="9vGFFWBtkDfa4I6SG_q_-20" value="False" style="edgeStyle=orthogonalEdgeStyle;rounded=0;orthogonalLoop=1;jettySize=auto;html=1;exitX=0.5;exitY=1;exitDx=0;exitDy=0;entryX=0.5;entryY=0;entryDx=0;entryDy=0;" edge="1" parent="WIyWlLk6GJQsqaUBKTNV-1" source="9vGFFWBtkDfa4I6SG_q_-5" target="9vGFFWBtkDfa4I6SG_q_-19">
          <mxGeometry relative="1" as="geometry" />
        </mxCell>
        <mxCell id="9vGFFWBtkDfa4I6SG_q_-22" value="True" style="edgeStyle=orthogonalEdgeStyle;rounded=0;orthogonalLoop=1;jettySize=auto;html=1;exitX=1;exitY=0.5;exitDx=0;exitDy=0;entryX=0.5;entryY=0;entryDx=0;entryDy=0;" edge="1" parent="WIyWlLk6GJQsqaUBKTNV-1" source="9vGFFWBtkDfa4I6SG_q_-5" target="9vGFFWBtkDfa4I6SG_q_-21">
          <mxGeometry relative="1" as="geometry" />
        </mxCell>
        <mxCell id="9vGFFWBtkDfa4I6SG_q_-5" value="b = 0" style="rhombus;whiteSpace=wrap;html=1;" vertex="1" parent="WIyWlLk6GJQsqaUBKTNV-1">
          <mxGeometry x="560" y="210" width="80" height="80" as="geometry" />
        </mxCell>
        <mxCell id="9vGFFWBtkDfa4I6SG_q_-12" value="False" style="edgeStyle=orthogonalEdgeStyle;rounded=0;orthogonalLoop=1;jettySize=auto;html=1;" edge="1" parent="WIyWlLk6GJQsqaUBKTNV-1" source="9vGFFWBtkDfa4I6SG_q_-8" target="9vGFFWBtkDfa4I6SG_q_-10">
          <mxGeometry relative="1" as="geometry" />
        </mxCell>
        <mxCell id="9vGFFWBtkDfa4I6SG_q_-14" value="True" style="edgeStyle=orthogonalEdgeStyle;rounded=0;orthogonalLoop=1;jettySize=auto;html=1;" edge="1" parent="WIyWlLk6GJQsqaUBKTNV-1" source="9vGFFWBtkDfa4I6SG_q_-8" target="9vGFFWBtkDfa4I6SG_q_-13">
          <mxGeometry relative="1" as="geometry" />
        </mxCell>
        <mxCell id="9vGFFWBtkDfa4I6SG_q_-8" value="D&amp;lt;0" style="rhombus;whiteSpace=wrap;html=1;" vertex="1" parent="WIyWlLk6GJQsqaUBKTNV-1">
          <mxGeometry x="160" y="310" width="80" height="80" as="geometry" />
        </mxCell>
        <mxCell id="9vGFFWBtkDfa4I6SG_q_-16" value="" style="edgeStyle=orthogonalEdgeStyle;rounded=0;orthogonalLoop=1;jettySize=auto;html=1;" edge="1" parent="WIyWlLk6GJQsqaUBKTNV-1" source="9vGFFWBtkDfa4I6SG_q_-10" target="9vGFFWBtkDfa4I6SG_q_-15">
          <mxGeometry relative="1" as="geometry" />
        </mxCell>
        <mxCell id="9vGFFWBtkDfa4I6SG_q_-10" value="D=0" style="rhombus;whiteSpace=wrap;html=1;" vertex="1" parent="WIyWlLk6GJQsqaUBKTNV-1">
          <mxGeometry x="294" y="310" width="80" height="80" as="geometry" />
        </mxCell>
        <mxCell id="9vGFFWBtkDfa4I6SG_q_-18" style="edgeStyle=orthogonalEdgeStyle;rounded=0;orthogonalLoop=1;jettySize=auto;html=1;entryX=0;entryY=0.5;entryDx=0;entryDy=0;" edge="1" parent="WIyWlLk6GJQsqaUBKTNV-1" source="9vGFFWBtkDfa4I6SG_q_-13" target="o327pmdWcNCjlhLGnWa4-13">
          <mxGeometry relative="1" as="geometry">
            <Array as="points">
              <mxPoint x="200" y="650" />
            </Array>
          </mxGeometry>
        </mxCell>
        <mxCell id="9vGFFWBtkDfa4I6SG_q_-13" value="Phương trình vô nghiệm" style="shape=parallelogram;perimeter=parallelogramPerimeter;whiteSpace=wrap;html=1;fixedSize=1;" vertex="1" parent="WIyWlLk6GJQsqaUBKTNV-1">
          <mxGeometry x="140" y="430" width="120" height="60" as="geometry" />
        </mxCell>
        <mxCell id="9vGFFWBtkDfa4I6SG_q_-17" style="edgeStyle=orthogonalEdgeStyle;rounded=0;orthogonalLoop=1;jettySize=auto;html=1;entryX=0.5;entryY=0;entryDx=0;entryDy=0;" edge="1" parent="WIyWlLk6GJQsqaUBKTNV-1" source="9vGFFWBtkDfa4I6SG_q_-15" target="o327pmdWcNCjlhLGnWa4-13">
          <mxGeometry relative="1" as="geometry" />
        </mxCell>
        <mxCell id="9vGFFWBtkDfa4I6SG_q_-15" value="Phương trình có 2 nghiệm&lt;br&gt;x1=(-b-sqrt(D))/2a&lt;br&gt;x2=(-b+sqrt(D))/2a" style="shape=parallelogram;perimeter=parallelogramPerimeter;whiteSpace=wrap;html=1;fixedSize=1;" vertex="1" parent="WIyWlLk6GJQsqaUBKTNV-1">
          <mxGeometry x="400" y="315" width="140" height="70" as="geometry" />
        </mxCell>
        <mxCell id="9vGFFWBtkDfa4I6SG_q_-19" value="Phương trình có nghiệm: x=c/b" style="shape=parallelogram;perimeter=parallelogramPerimeter;whiteSpace=wrap;html=1;fixedSize=1;" vertex="1" parent="WIyWlLk6GJQsqaUBKTNV-1">
          <mxGeometry x="540" y="385" width="120" height="60" as="geometry" />
        </mxCell>
        <mxCell id="9vGFFWBtkDfa4I6SG_q_-23" style="edgeStyle=orthogonalEdgeStyle;rounded=0;orthogonalLoop=1;jettySize=auto;html=1;exitX=0.5;exitY=1;exitDx=0;exitDy=0;entryX=1;entryY=0.5;entryDx=0;entryDy=0;" edge="1" parent="WIyWlLk6GJQsqaUBKTNV-1" source="9vGFFWBtkDfa4I6SG_q_-21" target="o327pmdWcNCjlhLGnWa4-13">
          <mxGeometry relative="1" as="geometry" />
        </mxCell>
        <mxCell id="9vGFFWBtkDfa4I6SG_q_-21" value="Phương trình vô nghiệm" style="shape=parallelogram;perimeter=parallelogramPerimeter;whiteSpace=wrap;html=1;fixedSize=1;" vertex="1" parent="WIyWlLk6GJQsqaUBKTNV-1">
          <mxGeometry x="670" y="385" width="120" height="60" as="geometry" />
        </mxCell>
      </root>
    </mxGraphModel>
  </diagram>
</mxfile>
